<svg width="24" height="24" xmlns="http://www.w3.org/2000/svg">
  <path fill-rule="evenodd" clip-rule="evenodd" d="M12.011 0C5.348 0 0 5.347 0 11.956c0 5.287 3.426 9.765 8.17 11.355.593.119.811-.258.811-.574 0-.277-.02-1.228-.02-2.219-3.323.713-4.016-1.426-4.016-1.426-.534-1.386-1.325-1.743-1.325-1.743-1.087-.733.079-.733.079-.733 1.206.079 1.84 1.228 1.84 1.228 1.068 1.822 2.788 1.307 3.481.991.099-.773.415-1.307.752-1.605-2.65-.277-5.44-1.307-5.44-5.902 0-1.307.474-2.376 1.227-3.208-.119-.297-.534-1.525.119-3.169 0 0 1.009-.317 3.283 1.228a11.46 11.46 0 0 1 2.987-.396c1.009 0 2.037.139 2.987.396 2.274-1.545 3.283-1.228 3.283-1.228.652 1.644.237 2.872.119 3.169.772.832 1.227 1.901 1.227 3.208 0 4.595-2.788 5.605-5.459 5.902.435.376.811 1.089.811 2.218 0 1.604-.02 2.892-.02 3.287 0 .317.218.693.811.575 4.744-1.585 8.17-6.063 8.17-11.349C24.001 5.347 18.633 0 12.011 0z" fill="#24292f"/>
</svg>
