<svg width="32" height="32" viewBox="0 0 32 32" fill="none" xmlns="http://www.w3.org/2000/svg">
<g id="Shape">
<path id="Vector" fill-rule="evenodd" clip-rule="evenodd" d="M20.0002 7.8668C18.4538 7.8668 17.2002 9.1204 17.2002 10.6668C17.2002 12.2132 18.4538 13.4668 20.0002 13.4668C21.5466 13.4668 22.8001 12.2132 22.8001 10.6668C22.8001 9.1204 21.5466 7.8668 20.0002 7.8668ZM14.8002 10.6668C14.8002 7.79492 17.1283 5.4668 20.0002 5.4668C22.872 5.4668 25.2001 7.79492 25.2001 10.6668C25.2001 13.5387 22.872 15.8668 20.0002 15.8668C17.1283 15.8668 14.8002 13.5387 14.8002 10.6668ZM14.066 21.4876C12.5916 22.4705 11.8667 23.6967 11.8667 24.8889C11.8667 25.0807 11.8655 25.2725 11.8691 25.4642C17.1562 25.5644 22.4458 25.4667 27.7333 25.4667C27.8659 25.4667 27.9984 25.4668 28.1309 25.4642C28.1345 25.2725 28.1333 25.0807 28.1333 24.8889C28.1333 23.6967 27.4085 22.4705 25.934 21.4876C24.468 20.5102 22.3735 19.8667 20 19.8667C17.6266 19.8667 15.5321 20.5102 14.066 21.4876ZM12.7347 19.4907C14.6467 18.216 17.2188 17.4667 20 17.4667C22.7812 17.4667 25.3534 18.216 27.2653 19.4907C29.1688 20.7597 30.5333 22.6446 30.5333 24.8889C30.5333 25.1995 30.541 25.5114 30.5157 25.8212C30.496 26.0621 30.4486 26.3611 30.2935 26.6654C30.0826 27.0794 29.7461 27.416 29.3321 27.6269C29.0278 27.7819 28.7288 27.8294 28.4878 27.8491C28.2713 27.8668 28.0179 27.8667 27.769 27.8667H12.231C11.9822 27.8667 11.7288 27.8668 11.5122 27.8491C11.2712 27.8294 10.9723 27.7819 10.6679 27.6269C10.254 27.416 9.91744 27.0794 9.70652 26.6654C9.55146 26.3611 9.50403 26.0621 9.48434 25.8212C9.45903 25.5114 9.46673 25.1995 9.46673 24.8889C9.46673 22.6446 10.8312 20.7597 12.7347 19.4907ZM3.95341 20.9701C5.34158 20.0447 7.17885 19.4989 9.15668 19.4682C8.50859 20.2236 7.96655 21.0843 7.59701 22.0411C6.6905 22.2288 5.90049 22.5565 5.28468 22.9671C4.2928 23.6283 3.86643 24.4101 3.86643 25.1113C3.86643 25.2291 3.86628 25.3469 3.86822 25.4647C4.93485 25.4824 6.00175 25.4665 7.06845 25.4665C7.07105 25.6403 7.07735 25.8333 7.09232 26.0166C7.12414 26.406 7.21193 27.056 7.56811 27.755C7.58721 27.7925 7.6068 27.8297 7.62687 27.8665L4.18869 27.8665C3.95855 27.8666 3.72414 27.8666 3.5234 27.8514C3.30055 27.8346 3.02341 27.794 2.73718 27.6607C2.26801 27.442 1.89095 27.065 1.67232 26.5958C1.53893 26.3096 1.49842 26.0324 1.48155 25.8096C1.46398 25.5774 1.46641 25.344 1.46643 25.1113C1.46643 23.3579 2.53244 21.9175 3.95341 20.9701ZM7.19991 13.3333C7.19991 12.5233 7.85655 11.8667 8.66657 11.8667C9.47658 11.8667 10.1332 12.5233 10.1332 13.3333C10.1332 14.1434 9.47658 14.8 8.66657 14.8C7.85655 14.8 7.19991 14.1434 7.19991 13.3333ZM8.66657 9.46667C6.53108 9.46667 4.79992 11.1978 4.79992 13.3333C4.79992 15.4688 6.53108 17.2 8.66657 17.2C10.8021 17.2 12.5332 15.4688 12.5332 13.3333C12.5332 11.1978 10.8021 9.46667 8.66657 9.46667Z" fill="#F8F8F8"/>
</g>
</svg>
