<svg width="32" height="32" viewBox="0 0 32 32" fill="none" xmlns="http://www.w3.org/2000/svg">
<g id="Shape">
<path id="Vector" fill-rule="evenodd" clip-rule="evenodd" d="M16.7289 3.04608C16.2986 2.71706 15.7013 2.71706 15.271 3.04608L3.93774 11.7127C3.64084 11.9397 3.46668 12.2921 3.46668 12.6659L3.46668 25.239C3.46664 25.5781 3.46661 25.9008 3.48883 26.1728C3.51306 26.4693 3.56957 26.8095 3.7428 27.1494C3.98567 27.6261 4.37322 28.0137 4.8499 28.2565C5.18987 28.4298 5.53001 28.4863 5.82656 28.5105C6.09848 28.5327 6.42118 28.5327 6.76025 28.5327H25.2396C25.5787 28.5327 25.9014 28.5327 26.1734 28.5105C26.4699 28.4863 26.8101 28.4298 27.15 28.2565C27.6267 28.0137 28.0143 27.6261 28.2571 27.1494C28.4304 26.8095 28.4869 26.4693 28.5111 26.1728C28.5333 25.9008 28.5333 25.5781 28.5333 25.2391L28.5333 12.6659C28.5333 12.2921 28.3591 11.9397 28.0622 11.7127L16.7289 3.04608ZM15.919 5.57197C15.9668 5.53541 16.0332 5.53541 16.081 5.57197L26.0809 13.219C26.1139 13.2442 26.1333 13.2833 26.1333 13.3249V25.9994C26.1333 26.073 26.0736 26.1327 25.9999 26.1327H17.2003V18.6659H14.8004V26.1327H6.00001C5.92637 26.1327 5.86667 26.073 5.86667 25.9994V13.3249C5.86667 13.2833 5.88603 13.2442 5.91901 13.219L15.919 5.57197Z" fill="#F8F8F8"/>
</g>
</svg>
